<svg width="100%" height="100%" xmlns="http://www.w3.org/2000/svg" xmlns:xlink="http://www.w3.org/1999/xlink" style="position: absolute; width: 52px; height: 64px; overflow: visible; display: block; transform: translate(0px, 0px);"><path d="M 16.702 37.712 C 10.339 34.365 6 27.689 6 20 C 6 8.954 14.954 0 26 0 C 37.046 0 46 8.954 46 20 C 46 27.689 41.661 34.365 35.298 37.712 C 45.065 41.453 52 50.917 52 62 C 52 63.105 51.105 64 50 64 C 48.895 64 48 63.105 48 62 C 48 49.85 38.15 40 26 40 C 13.85 40 4 49.85 4 62 C 4 63.105 3.105 64 2 64 C 0.895 64 0 63.105 0 62 C 0 50.917 6.935 41.453 16.702 37.712 Z M 26 36 C 34.837 36 42 28.837 42 20 C 42 11.163 34.837 4 26 4 C 17.163 4 10 11.163 10 20 C 10 28.837 17.163 36 26 36 Z" fill="hsl(0, 0%, 100%)" name="Shape"></path></svg>
