<svg xmlns="http://www.w3.org/2000/svg" viewBox="0 0 120 24" id="vostok-logo" width="100%" height="100%">
    <g fill-rule="nonzero" fill="none">
        <path d="M66.851 13.345l-2.264-.483c-1.005-.238-2.066-.647-2.066-1.695 0-.951.965-1.669 2.367-1.669a2.839 2.839 0 0 1 2.664 1.572c.044.101.141.166.25.168h3.372a.2.2 0 0 0 .16-.078.206.206 0 0 0 .038-.175c-.598-2.557-3.045-4.59-6.216-4.59-3.075 0-6.077 1.859-6.077 4.883 0 2.364 1.81 4.021 4.965 4.75.503.115 1.163.234 1.835.371 1.468.301 2.297.744 2.297 1.635 0 1.268-1.563 1.762-2.877 1.762-1.699 0-2.749-.699-3.178-2.096a.272.272 0 0 0-.253-.19l-3.167-.055a.267.267 0 0 0-.217.104.274.274 0 0 0-.047.238l.11.427c.734 2.928 3.354 4.75 6.803 4.75a7.154 7.154 0 0 0 4.437-1.443 4.45 4.45 0 0 0 1.835-3.493c-.026-2.449-1.563-4.047-4.77-4.693zm-27.46-6.938h-3.303a.238.238 0 0 0-.22.145l-4.184 9.72-4.47-9.735a.238.238 0 0 0-.216-.142h-3.376a.238.238 0 0 0-.203.113.244.244 0 0 0-.013.233l7.339 15.727c.04.084.124.138.216.137h1.417a.238.238 0 0 0 .216-.141l7.024-15.727a.244.244 0 0 0-.026-.227.238.238 0 0 0-.201-.103zm9.035-.019a8.323 8.323 0 0 0-5.927 2.42 8.227 8.227 0 0 0-2.415 5.856 8.343 8.343 0 0 0 2.45 5.923 8.133 8.133 0 0 0 5.892 2.375 8.134 8.134 0 0 0 5.838-2.393 8.38 8.38 0 0 0 2.47-5.916 8.2 8.2 0 0 0-2.47-5.85 8.262 8.262 0 0 0-5.838-2.415zm3.258 11.743a4.527 4.527 0 0 1-3.302 1.416c-2.613 0-4.657-2.148-4.657-4.887-.035-2.641 2.048-4.812 4.657-4.853 2.608.04 4.691 2.212 4.657 4.853a4.98 4.98 0 0 1-1.355 3.471zM78.729 17.163v-6.97h4.496a.269.269 0 0 0 .264-.274V7.24a.27.27 0 0 0-.264-.274h-4.496v-3.86a.221.221 0 0 0-.218-.225h-.368c-.06 0-.338.027-.38.074l-5.115 6.05a.284.284 0 0 0-.067.181v.801c0 .115.089.207.198.207h2.4v7.356c0 3.175 2.482 5.75 5.542 5.75h2.508a.273.273 0 0 0 .268-.278V20.02c0-.128-.1-.232-.224-.232h-2.016c-1.396 0-2.528-1.175-2.528-2.625M93.503 6.72a8.323 8.323 0 0 0-5.927 2.42 8.227 8.227 0 0 0-2.415 5.856 8.343 8.343 0 0 0 2.45 5.923 8.133 8.133 0 0 0 5.892 2.375 8.134 8.134 0 0 0 5.838-2.393 8.38 8.38 0 0 0 2.47-5.916 8.2 8.2 0 0 0-2.47-5.85 8.262 8.262 0 0 0-5.838-2.415zm3.255 11.747a4.527 4.527 0 0 1-3.303 1.416c-2.613 0-4.657-2.148-4.657-4.887a4.822 4.822 0 0 1 1.346-3.41 4.702 4.702 0 0 1 3.337-1.443c2.608.04 4.691 2.212 4.656 4.853a4.98 4.98 0 0 1-1.38 3.467v.004zm23.169 3.752l-7.516-8.213 6.239-6.878a.244.244 0 0 0 .042-.261.238.238 0 0 0-.219-.145h-3.75a.237.237 0 0 0-.176.079l-6.239 6.87V.607a.243.243 0 0 0-.07-.171.237.237 0 0 0-.168-.07h-3.039a.24.24 0 0 0-.238.24v21.777a.24.24 0 0 0 .238.242h3.039a.237.237 0 0 0 .168-.071.243.243 0 0 0 .07-.17v-7.697l7.116 7.86c.045.05.11.078.176.078h4.154a.239.239 0 0 0 .216-.146.244.244 0 0 0-.043-.26z"
              fill="#0A0606"></path>
        <path d="M11.343 14.467L.701 20.49a.327.327 0 0 1-.33-.004.335.335 0 0 1-.162-.29V8.15c0-.119.061-.229.163-.29A.327.327 0 0 1 .7 7.857l10.642 6.024a.335.335 0 0 1 0 .587z"
              fill="#F0222B"></path>
    </g>
</svg>
